<?xml version="1.0" encoding="UTF-8"?>
<!--Generator: Apple Native CoreSVG 232.5-->
<!DOCTYPE svg
PUBLIC "-//W3C//DTD SVG 1.1//EN"
       "http://www.w3.org/Graphics/SVG/1.1/DTD/svg11.dtd">
<svg version="1.1" xmlns="http://www.w3.org/2000/svg" xmlns:xlink="http://www.w3.org/1999/xlink" width="104.725" height="95.6719">
 <g>
  <rect height="95.6719" opacity="0" width="104.725" x="0" y="0"/>
  <path d="M56.9126 95.625C83.0219 95.625 104.725 73.9219 104.725 47.8125C104.725 21.6562 83.0219 0 56.9126 0C30.7563 0 9.10007 21.6094 9.10007 47.7656L17.0688 47.7656C17.0688 25.6406 34.7876 8.01562 56.9126 8.01562C79.0376 8.01562 96.7563 25.6875 96.7563 47.8125C96.7563 69.9375 79.0376 87.75 56.9126 87.6562C43.5532 87.6094 31.8344 81.1406 24.6626 71.1562C23.2094 69.2344 21.0063 68.625 19.0376 69.7969C17.1626 70.9688 16.6469 73.5469 18.2407 75.6094C27.1469 87.5625 41.1157 95.625 56.9126 95.625ZM3.33445 38.7656C-0.0405504 38.7656-0.8843 41.0625 0.943825 43.6875L11.4438 58.5938C12.9907 60.75 15.2407 60.7031 16.7407 58.5938L27.2407 43.6406C29.0219 41.0625 28.1782 38.7656 24.8501 38.7656Z" fill="#454545" fill-opacity="0.85"/>
 </g>
</svg>
